<?xml version="1.0" encoding="UTF-8"?>
<!DOCTYPE svg PUBLIC "-//W3C//DTD SVG 1.1//EN" "http://www.w3.org/Graphics/SVG/1.1/DTD/svg11.dtd">
<svg xmlns="http://www.w3.org/2000/svg" version="1.1" width="646px" height="171px" style="shape-rendering:geometricPrecision; text-rendering:geometricPrecision; image-rendering:optimizeQuality; fill-rule:evenodd; clip-rule:evenodd" xmlns:xlink="http://www.w3.org/1999/xlink">
<g><path style="opacity:0.95" fill="#fefefd" d="M 47.5,170.5 C 35.8333,170.5 24.1667,170.5 12.5,170.5C 8.30076,169.029 3.96743,167.695 -0.5,166.5C -0.5,163.833 -0.5,161.167 -0.5,158.5C 1.13141,153.664 2.63141,148.664 4,143.5C 16.5864,150.622 29.7531,152.122 43.5,148C 49.6982,142.631 50.0316,136.964 44.5,131C 35.6483,126.742 26.6483,122.742 17.5,119C 0.345001,108.531 -4.155,94.0305 4,75.5C 13.8042,62.77 26.8042,57.1033 43,58.5C 52.1871,57.9375 61.0204,59.4375 69.5,63C 70.0219,63.5613 70.3552,64.228 70.5,65C 68.996,71.677 66.996,78.177 64.5,84.5C 53.4344,79.1621 42.1011,78.3287 30.5,82C 24.4782,88.804 25.4782,94.4707 33.5,99C 44.0429,102.606 54.0429,107.273 63.5,113C 73.8074,121.927 77.3074,133.093 74,146.5C 69.5612,159.452 60.7278,167.452 47.5,170.5 Z"/></g>
<g><path style="opacity:0.965" fill="#fefefd" d="M 311.5,170.5 C 302.5,170.5 293.5,170.5 284.5,170.5C 280.824,158.132 276.991,145.799 273,133.5C 271.269,131.383 269.102,129.883 266.5,129C 261.863,128.171 257.196,127.671 252.5,127.5C 252.5,141.833 252.5,156.167 252.5,170.5C 244.167,170.5 235.833,170.5 227.5,170.5C 227.167,134.161 227.5,97.8272 228.5,61.5C 244.893,59.1167 261.226,58.6167 277.5,60C 301.857,64.1958 311.024,78.3624 305,102.5C 301.5,110 296,115.5 288.5,119C 294.07,121.943 297.903,126.443 300,132.5C 303.53,145.294 307.363,157.96 311.5,170.5 Z M 253.5,78.5 C 258.844,78.334 264.177,78.5006 269.5,79C 280.237,82.5156 283.737,89.6823 280,100.5C 276.514,105.497 271.681,108.331 265.5,109C 261.179,109.499 256.846,109.666 252.5,109.5C 252.192,99.0846 252.525,88.7513 253.5,78.5 Z"/></g>
<g><path style="opacity:0.949" fill="#fefefd" d="M 368.5,170.5 C 356.833,170.5 345.167,170.5 333.5,170.5C 329.226,169.171 324.893,167.671 320.5,166C 320.919,158.458 322.419,150.958 325,143.5C 337.586,150.622 350.753,152.122 364.5,148C 370.698,142.631 371.032,136.964 365.5,131C 356.648,126.742 347.648,122.742 338.5,119C 320.238,107.164 316.405,91.6641 327,72.5C 336.966,61.7518 349.299,57.0852 364,58.5C 373.458,57.8586 382.458,59.5253 391,63.5C 390.273,70.7372 388.44,77.7372 385.5,84.5C 374.434,79.1621 363.101,78.3287 351.5,82C 345.478,88.804 346.478,94.4707 354.5,99C 365.043,102.606 375.043,107.273 384.5,113C 394.807,121.927 398.307,133.093 395,146.5C 390.561,159.452 381.728,167.452 368.5,170.5 Z"/></g>
<g><path style="opacity:0.949" fill="#fefefd" d="M 456.5,170.5 C 444.833,170.5 433.167,170.5 421.5,170.5C 417.226,169.171 412.893,167.671 408.5,166C 408.919,158.458 410.419,150.958 413,143.5C 425.586,150.622 438.753,152.122 452.5,148C 458.698,142.631 459.032,136.964 453.5,131C 444.648,126.742 435.648,122.742 426.5,119C 408.238,107.164 404.405,91.6641 415,72.5C 424.966,61.7518 437.299,57.0852 452,58.5C 461.458,57.8586 470.458,59.5253 479,63.5C 478.273,70.7372 476.44,77.7372 473.5,84.5C 462.434,79.1621 451.101,78.3287 439.5,82C 433.478,88.804 434.478,94.4707 442.5,99C 453.043,102.606 463.043,107.273 472.5,113C 482.807,121.927 486.307,133.093 483,146.5C 478.561,159.452 469.728,167.452 456.5,170.5 Z"/></g>
<g><path style="opacity:0.957" fill="#fefefd" d="M 209.5,170.5 C 201.167,170.5 192.833,170.5 184.5,170.5C 183.531,142.506 182.698,114.506 182,86.5C 173.928,114.215 165.761,141.881 157.5,169.5C 150.5,169.5 143.5,169.5 136.5,169.5C 128.956,142.364 122.123,115.03 116,87.5C 114.405,115.151 113.239,142.818 112.5,170.5C 104.5,170.5 96.5,170.5 88.5,170.5C 90.5,133.833 92.5,97.1667 94.5,60.5C 106.167,60.5 117.833,60.5 129.5,60.5C 136.712,84.6367 143.212,108.97 149,133.5C 154.987,109.205 161.987,85.2049 170,61.5C 181.333,60.1667 192.667,60.1667 204,61.5C 206.201,97.8185 208.034,134.152 209.5,170.5 Z"/></g>
<g><path style="opacity:0.988" fill="#fefefd" d="M 569.5,170.5 C 546.5,170.5 523.5,170.5 500.5,170.5C 500.5,133.833 500.5,97.1667 500.5,60.5C 508.833,60.5 517.167,60.5 525.5,60.5C 525.5,90.1667 525.5,119.833 525.5,149.5C 540.167,149.5 554.833,149.5 569.5,149.5C 569.5,156.5 569.5,163.5 569.5,170.5 Z"/></g>
<g><path style="opacity:0.992" fill="#fefefd" d="M 645.5,149.5 C 645.5,156.5 645.5,163.5 645.5,170.5C 624.833,170.5 604.167,170.5 583.5,170.5C 583.5,133.833 583.5,97.1667 583.5,60.5C 591.833,60.5 600.167,60.5 608.5,60.5C 608.5,90.1667 608.5,119.833 608.5,149.5C 620.833,149.5 633.167,149.5 645.5,149.5 Z"/></g>
</svg>
